<svg width="60" height="59" viewBox="0 0 60 59" fill="none" xmlns="http://www.w3.org/2000/svg">
<g id="&#240;&#159;&#166;&#134; icon &#34;canva&#34;">
<path id="Vector" d="M29.8999 0C13.603 0 0.399902 13.2031 0.399902 29.5C0.399902 45.7969 13.603 59 29.8999 59C46.1968 59 59.3999 45.7969 59.3999 29.5C59.3999 13.2031 46.1968 0 29.8999 0ZM17.5117 18.88C19.3647 18.88 20.8065 20.2315 20.9688 21.8282C21.1439 23.2681 20.5466 24.5274 18.9536 25.2852C18.1073 25.7074 17.7717 25.7074 17.5984 25.4567C17.5117 25.2852 17.5984 25.1229 17.7699 24.9478C19.2891 23.6922 19.2891 22.6744 19.114 21.2437C19.0273 20.3126 18.3562 19.7244 17.6832 19.7244C14.7258 19.7244 10.5202 26.2937 11.1047 31.1041C11.3647 32.957 12.4599 35.1474 14.8125 35.1474C15.5721 35.1474 16.4184 34.8967 17.1743 34.5629C18.4041 33.9084 19.1435 33.4106 19.8736 32.5938C19.6911 30.4127 21.6012 27.5622 24.424 27.5622C25.6925 27.5622 26.701 28.0711 26.7858 29.0022C26.9499 30.2615 25.8547 30.4329 25.5192 30.4329C25.1817 30.4329 24.5881 30.3463 24.5881 30.0107C24.5125 29.6733 25.3458 29.8393 25.2684 29.0796C25.1817 28.5708 24.6729 28.4085 24.1751 28.4085C22.3977 28.4085 21.3892 30.857 21.6399 32.3633C21.7266 33.0437 22.0603 33.7185 22.7443 33.7185C23.244 33.7185 24.0036 32.9589 24.2507 31.8655C24.4221 31.1059 25.0969 30.597 25.6906 30.597C25.9414 30.597 26.1036 30.6837 26.1903 31.0192V31.3567C26.1147 31.6941 25.8529 32.7118 25.9414 32.9589C25.9414 33.134 26.028 33.3811 26.3617 33.3811C26.583 33.3811 27.4293 32.9386 28.2737 32.2472C28.5521 30.7962 28.8877 29.0593 28.8877 28.9155C28.9743 28.32 29.2251 27.7337 30.4051 27.7337C30.6632 27.7337 30.8273 27.8203 30.914 28.1559V28.4933L30.5766 30.0107C31.6736 28.58 33.2758 27.5714 34.2843 27.5714C34.7066 27.5714 35.044 27.8203 35.044 28.2426C35.044 28.4933 35.044 28.9155 34.8688 29.3396C34.5351 30.2615 34.111 31.7014 33.8603 32.9589C33.8603 33.2963 33.9469 33.6318 34.3692 33.6318C34.7914 33.6318 36.0507 33.1322 37.0592 31.7789L37.0795 31.7697C37.0795 31.6056 37.0592 31.4433 37.0592 31.2811C37.0592 30.2633 37.1458 29.4281 37.3192 28.8326C37.4906 28.1596 38.3277 27.5733 38.8366 27.5733C39.0855 27.5733 39.3454 27.7355 39.3454 27.9863C39.3454 28.0729 39.3454 28.2444 39.2588 28.3237C38.9214 29.4281 38.6614 30.4348 38.6614 31.4433C38.6614 32.0388 38.7499 32.8741 38.9214 33.3829C38.9214 33.4696 38.997 33.5544 39.0836 33.5544C39.2588 33.5544 40.4388 32.4611 41.274 31.0192C40.5144 30.5196 40.0922 29.6752 40.0922 28.6666C40.0922 26.8911 41.1984 25.9674 42.2069 25.9674C43.0532 25.9674 43.7243 26.5555 43.7243 27.7355C43.7243 28.4952 43.4736 29.3414 43.0532 30.0974H43.3021C43.8405 30.1177 44.3697 29.8964 44.7329 29.5129C44.8195 29.3783 44.9338 29.2824 45.0703 29.2253C45.8963 28.178 47.1058 27.4018 48.5365 27.4018C49.7165 27.4018 50.8025 27.9107 50.8892 28.8326C51.0606 30.0992 49.9581 30.35 49.6207 30.35C49.2869 30.35 48.6914 30.2633 48.6914 29.9278C48.6914 29.5922 49.4492 29.7563 49.3717 29.0059C49.2851 28.497 48.7762 28.3255 48.2673 28.3255C46.5858 28.3255 45.4925 30.5141 45.7396 32.2914C45.8262 32.9626 46.1618 33.7222 46.8366 33.7222C47.3455 33.7222 48.1032 32.9626 48.4388 31.8692C48.6011 31.1981 49.2851 30.6007 49.8696 30.6007C50.1277 30.6007 50.2918 30.6874 50.3784 31.0229C50.3784 31.1981 50.3784 31.5318 50.041 32.6288C49.6188 33.3866 49.6188 33.8088 49.7073 34.1463C49.7829 34.8174 50.1203 35.3262 50.4651 35.577C50.5407 35.6637 50.6292 35.8259 50.6292 35.8259C50.6292 36.0011 50.5407 36.1725 50.2918 36.1725C50.2051 36.1725 50.1277 36.1725 50.041 36.0859C48.7744 35.577 48.2655 34.7307 48.1014 33.8863C47.5925 34.4818 47.0081 34.8174 46.3259 34.8174C45.2288 34.8174 44.1447 33.8088 43.9732 32.5403C43.9235 32.0038 43.9806 31.4562 44.1558 30.9473C43.6561 31.2645 43.1177 31.447 42.6199 31.447H42.2069C41.1025 33.0492 39.9207 34.1463 39.0855 34.6459C38.7978 34.7989 38.4807 34.8874 38.1544 34.904C37.9921 34.904 37.734 34.8174 37.6547 34.6459C37.4169 34.2716 37.2712 33.6853 37.1753 33.0142C35.9935 34.2993 34.3599 34.9907 33.604 34.9907C32.7577 34.9907 32.2599 34.4818 32.1732 33.6392V32.7173C32.4222 30.8644 33.1043 29.76 33.1043 29.4226C33.0951 29.3359 33.0251 29.2585 32.9292 29.2511C32.3447 29.2511 30.4051 31.2774 30.0677 32.6307L29.8096 33.724C29.6455 34.4818 28.8877 34.9907 28.3788 34.9907C28.1281 34.9907 27.9566 34.904 27.8792 34.5703V34.2329L27.9842 33.6577C26.9167 34.4154 25.851 34.904 25.3422 34.904C24.5844 34.904 24.1622 34.4818 24.0866 33.8863C23.5777 34.5703 22.9895 34.904 22.2336 34.904C21.3578 34.904 20.5152 34.3085 20.1114 33.4456C19.5048 34.126 18.8227 34.8082 18.0169 35.3262C16.8369 36.0859 15.4928 36.6703 13.8869 36.6703C12.4562 36.6703 11.1895 35.9107 10.5166 35.2396C9.49881 34.3085 8.91434 32.8778 8.82768 31.5318C8.32803 27.4037 10.854 22.0918 14.7222 19.73C15.6532 19.2211 16.5862 18.8874 17.5081 18.8874L17.5117 18.88ZM41.5284 26.9759C41.2795 26.9759 41.1081 27.3981 41.1081 27.8093C41.1081 28.4933 41.4418 29.2493 41.8658 29.6733C42.041 29.2142 42.1166 28.7238 42.1258 28.2333C42.1258 27.4 41.7884 26.9778 41.5284 26.9778V26.9759Z" fill="#23BEC7"/>
</g>
</svg>
