<svg width="40" height="57" viewBox="0 0 40 57" fill="none" xmlns="http://www.w3.org/2000/svg">
<g id="&#240;&#159;&#166;&#134; icon &#34;CSS3&#34;">
<path id="Vector" d="M20.2762 56.0242L4.34929 51.6028L0.800049 11.7939H39.8L36.247 51.5966L20.2762 56.0242Z" fill="#264DE4"/>
<path id="Vector_2" d="M33.2053 49.062L36.2416 15.0488H20.3V52.6398L33.2053 49.062Z" fill="#2965F1"/>
<g id="Group">
<path id="Vector_3" d="M8.93652 29.8135L9.37412 34.6958H20.3V29.8135H8.93652Z" fill="#EBEBEB"/>
<path id="Vector_4" d="M8.05737 19.9314L8.5012 24.8138H20.3001V19.9314H8.05737Z" fill="#EBEBEB"/>
<path id="Vector_5" d="M20.3002 42.4937L20.2788 42.4994L14.8413 41.0311L14.4937 37.1372H9.59253L10.2766 44.8033L20.2778 47.5797L20.3002 47.5734V42.4937Z" fill="#EBEBEB"/>
</g>
<path id="Vector_6" d="M9.97827 0.975586H15.8917V3.44847H12.4512V5.92136H15.8917V8.39424H9.97827V0.975586Z" fill="black"/>
<path id="Vector_7" d="M17.0747 0.975586H22.9881V3.12592H19.5476V3.55599H22.9881V8.50176H17.0747V6.24391H20.5152V5.81384H17.0747V0.975586Z" fill="black"/>
<path id="Vector_8" d="M24.1709 0.975586H30.0843V3.12592H26.6438V3.55599H30.0843V8.50176H24.1709V6.24391H27.6114V5.81384H24.1709V0.975586Z" fill="black"/>
<path id="Vector_9" d="M31.6325 29.8135L32.5139 19.9314H20.2834V24.8138H27.1632L26.719 29.8135H20.2834V34.6958H26.2956L25.7289 41.0279L20.2834 42.4977V47.5772L30.2926 44.8032L30.3661 43.9783L31.5134 31.1245L31.6325 29.8135Z" fill="white"/>
</g>
</svg>
