<svg width="40" height="59" viewBox="0 0 40 59" fill="none" xmlns="http://www.w3.org/2000/svg">
<g id="&#240;&#159;&#166;&#134; icon &#34;figma&#34;">
<g id="Group">
<path id="Vector" d="M29.8501 39.25C35.2349 39.25 39.6001 34.8848 39.6001 29.5C39.6001 24.1152 35.2349 19.75 29.8501 19.75C24.4653 19.75 20.1001 24.1152 20.1001 29.5C20.1001 34.8848 24.4653 39.25 29.8501 39.25Z" fill="#19BCFE"/>
<path id="Vector_2" fill-rule="evenodd" clip-rule="evenodd" d="M10.3501 58.75C15.7349 58.75 20.1001 54.3848 20.1001 49C20.1001 47.5301 20.1001 44.2801 20.1001 39.25C15.72 39.25 12.47 39.25 10.3501 39.25C4.96532 39.25 0.600098 43.6152 0.600098 49C0.600098 54.3848 4.96532 58.75 10.3501 58.75Z" fill="#09CF83"/>
<path id="Vector_3" fill-rule="evenodd" clip-rule="evenodd" d="M10.3501 39.25H20.1001V19.75C15.395 19.75 12.145 19.75 10.3501 19.75C4.96532 19.75 0.600098 24.1152 0.600098 29.5C0.600098 34.8848 4.96532 39.25 10.3501 39.25Z" fill="#A259FF"/>
<path id="Vector_4" fill-rule="evenodd" clip-rule="evenodd" d="M10.3501 19.75H20.1001V0.25C15.395 0.25 12.145 0.25 10.3501 0.25C4.96532 0.25 0.600098 4.61522 0.600098 10C0.600098 15.3848 4.96532 19.75 10.3501 19.75Z" fill="#F24E1E"/>
<path id="Vector_5" fill-rule="evenodd" clip-rule="evenodd" d="M29.8501 19.75H20.1001V0.25H29.8501C35.2349 0.25 39.6001 4.61522 39.6001 10C39.6001 15.3848 35.2349 19.75 29.8501 19.75Z" fill="#FF7262"/>
</g>
</g>
</svg>
