<svg width="39" height="57" viewBox="0 0 39 57" fill="none" xmlns="http://www.w3.org/2000/svg">
<g id="&#240;&#159;&#166;&#134; icon &#34;html 5&#34;">
<path id="Vector" d="M39 11.7939L35.447 51.5966L19.4761 56.0242L3.54924 51.6028L0 11.7939H39Z" fill="#E44D26"/>
<path id="Vector_2" d="M19.5 52.6398L32.4052 49.062L35.4415 15.0488H19.5V52.6398Z" fill="#F16529"/>
<path id="Vector_3" d="M12.5932 24.8138H19.5V19.9314H7.25732L7.3742 21.2413L8.57419 34.6958H19.5V29.8135H13.0394L12.5932 24.8138Z" fill="#EBEBEB"/>
<path id="Vector_4" d="M13.6936 37.137H8.79248L9.4765 44.803L19.4777 47.5794L19.5002 47.5732V42.4935L19.4788 42.4991L14.0412 41.0309L13.6936 37.137Z" fill="#EBEBEB"/>
<path id="Vector_5" d="M3.62866 0.975586H6.10983V3.42697H8.37951V0.975586H10.8608V8.39898H8.37962V5.91319H6.10994V8.39898H3.62877L3.62866 0.975586Z" fill="black"/>
<path id="Vector_6" d="M14.1238 3.43729H11.9395V0.975586H18.7904V3.43729H16.6051V8.39898H14.1239L14.1238 3.43729Z" fill="black"/>
<path id="Vector_7" d="M19.8774 0.975586H22.4646L24.0561 3.58394L25.6459 0.975586H28.2341V8.39898H25.7631V4.71954L24.0561 7.35897H24.0134L22.3052 4.71954V8.39898H19.8774V0.975586Z" fill="black"/>
<path id="Vector_8" d="M29.4688 0.975586H31.9507V5.94523H35.4399V8.39898H29.4688V0.975586Z" fill="black"/>
<g id="Group">
<path id="Vector_9" d="M19.4834 34.6958H25.4955L24.9288 41.0279L19.4834 42.4977V47.5772L29.4926 44.8031L29.566 43.9783L30.7133 31.1245L30.8324 29.8135H19.4834V34.6958Z" fill="white"/>
<path id="Vector_10" d="M19.4834 24.8019V24.8138H31.2767L31.3747 23.7164L31.5971 21.2413L31.7139 19.9314H19.4834V24.8019Z" fill="white"/>
</g>
</g>
</svg>
