<svg width="64" height="64" viewBox="0 0 64 64" fill="none" xmlns="http://www.w3.org/2000/svg">
<g id="&#240;&#159;&#166;&#134; icon &#34;linkedin outlined&#34;">
<g id="Group">
<path id="Vector" d="M32 62C48.5685 62 62 48.5685 62 32C62 15.4315 48.5685 2 32 2C15.4315 2 2 15.4315 2 32C2 48.5685 15.4315 62 32 62Z" stroke="#C036AA" stroke-width="3" stroke-linecap="round"/>
<path id="Vector_2" fill-rule="evenodd" clip-rule="evenodd" d="M40.6325 32.5045C40.6325 30.4776 39.025 28.8668 37.235 28.8668C35.8674 28.8668 34.6582 28.8668 33.8549 30.5635C33.7066 30.8768 33.5349 31.7889 33.5349 32.24V41H29.1897V29.8733V24.3851H33.7019L33.9244 26.5495H34.0219C34.6733 25.521 36.1539 24.3851 38.8251 24.3851C42.0813 24.3851 45.0002 26.9116 45.0002 31.5428V41H40.6325V32.5045ZM23.3392 22.4105C21.9176 22.4105 21.0002 21.4244 21.0002 20.206C21.0002 18.958 21.9473 18 23.3975 18C24.8478 18 25.7365 18.9575 25.7662 20.206C25.7667 21.4244 24.8483 22.4105 23.3392 22.4105ZM21.5237 41V24.3851H25.339V41H21.5237Z" fill="#C036AA"/>
</g>
</g>
</svg>
