<svg width="59" height="59" viewBox="0 0 59 59" fill="none" xmlns="http://www.w3.org/2000/svg">
<g id="&#240;&#159;&#166;&#134; icon &#34;adobe photoshop&#34;">
<path id="Vector" d="M0 21.3523C0 13.8783 0 10.1413 1.45454 7.28663C2.734 4.77557 4.77557 2.734 7.28663 1.45454C10.1413 0 13.8783 0 21.3523 0H37.6477C45.1217 0 48.8587 0 51.7133 1.45454C54.2244 2.734 56.266 4.77557 57.5454 7.28663C59 10.1413 59 13.8783 59 21.3523V37.6477C59 45.1217 59 48.8587 57.5454 51.7133C56.266 54.2244 54.2244 56.266 51.7133 57.5454C48.8587 59 45.1217 59 37.6477 59H21.3523C13.8783 59 10.1413 59 7.28663 57.5454C4.77557 56.266 2.734 54.2244 1.45454 51.7133C0 48.8587 0 45.1217 0 37.6477V21.3523Z" fill="#001E36"/>
<g id="Group">
<path id="Vector_2" d="M12.6428 43.2306V17.2858C12.6428 17.1094 12.7166 17.0085 12.8887 17.0085C15.4291 17.0085 17.9684 16.8572 20.5094 16.8572C24.6329 16.8572 29.0975 18.2671 30.6625 22.5806C31.0312 23.6396 31.2278 24.7238 31.2278 25.8585C31.2278 28.0269 30.7362 29.8169 29.7528 31.2289C27.006 35.1731 22.2451 35.1118 17.9775 35.1118V43.2055C18.0108 43.4451 17.8066 43.5585 17.6087 43.5585H12.9378C12.7412 43.5585 12.6428 43.4575 12.6428 43.2306ZM18.0019 21.8747V30.3465C19.6942 30.4704 21.4648 30.4839 23.0907 29.9432C24.8857 29.4252 25.8687 27.8716 25.8687 26.0098C25.9185 24.4233 25.0541 22.9011 23.5825 22.3286C21.9762 21.6606 19.7359 21.6206 18.0019 21.8747Z" fill="#31A8FF"/>
<path id="Vector_3" d="M46.5612 28.6727C45.8174 28.2806 45.0251 27.9938 44.2061 27.8202C43.1538 27.5726 39.0031 26.7053 39.0014 28.8757C39.0383 30.0873 40.9617 30.6808 41.8115 31.027C44.795 32.0513 48.1711 33.8822 48.1047 37.5628C48.1959 42.1445 43.7566 43.9763 39.9513 43.9767C37.9704 43.9971 35.9067 43.6903 34.0937 42.8399C33.9205 42.7482 33.8092 42.5525 33.8166 42.3527V37.9686C33.797 37.7929 33.9858 37.6393 34.1333 37.7657C35.9096 38.8399 38.0151 39.3616 40.0702 39.3895C40.9773 39.3895 42.7751 39.3016 42.7616 37.9686C42.7616 36.6896 40.6109 36.1015 39.7535 35.7765C38.5107 35.333 37.3324 34.7183 36.2508 33.9499C34.7391 32.8716 33.7909 31.1429 33.8166 29.241C33.8077 24.9269 37.8941 22.9904 41.5742 22.9896C43.2945 22.9752 45.1421 23.1027 46.7435 23.8014C46.9738 23.8691 47.0214 24.1118 47.0206 24.3291V28.4292C47.0351 28.6837 46.7526 28.7703 46.5612 28.6727Z" fill="#31A8FF"/>
</g>
</g>
</svg>
