<svg width="60" height="59" viewBox="0 0 60 59" fill="none" xmlns="http://www.w3.org/2000/svg">
<g id="&#240;&#159;&#166;&#134; icon &#34;wordpress&#34;">
<path id="Vector" d="M4.39308 29.499C4.39308 39.5162 10.2143 48.1722 18.6554 52.2748L6.58403 19.2002C5.13694 22.4406 4.39035 25.9501 4.39308 29.499ZM46.7828 28.222C46.7828 30.3884 45.9503 32.9025 44.8558 36.4027L42.3321 44.8376L33.1869 17.6342C34.7095 17.5543 36.0833 17.393 36.0833 17.393C37.4465 17.2317 37.2862 15.228 35.921 15.3085C35.921 15.3085 31.8232 15.6296 29.1768 15.6296C26.6902 15.6296 22.511 15.3085 22.511 15.3085C21.1473 15.228 20.9875 17.3131 22.3511 17.393C22.3511 17.393 23.6421 17.5543 25.0048 17.6342L28.948 28.4363L23.4095 45.0456L14.1941 17.6347C15.7196 17.5548 17.0909 17.3935 17.0909 17.3935C18.4532 17.2322 18.2923 15.2285 16.9282 15.3089C16.9282 15.3089 12.8309 15.6301 10.1839 15.6301C9.70914 15.6301 9.14912 15.6181 8.5554 15.6003C13.0803 8.72985 20.8584 4.19387 29.6992 4.19387C36.2875 4.19387 42.2859 6.71225 46.7886 10.837C46.6788 10.8307 46.5724 10.8168 46.4602 10.8168C43.975 10.8168 42.2112 12.9822 42.2112 15.3085C42.2112 17.393 43.4131 19.1583 44.6959 21.2428C45.6594 22.9286 46.7828 25.0945 46.7828 28.222ZM30.1432 31.7126L37.9227 53.0235C37.972 53.145 38.0323 53.2617 38.1028 53.3722C35.4723 54.2967 32.6462 54.8066 29.6992 54.8066C27.2792 54.8067 24.8718 54.4593 22.5505 53.7752L30.1432 31.7126ZM51.9043 17.3578C53.9448 21.0788 55.0112 25.2553 55.0044 29.499C55.0044 38.8354 49.9441 46.9862 42.4207 51.3734L50.1506 29.0243C51.5952 25.4147 52.0748 22.528 52.0748 19.96C52.0748 19.0297 52.0132 18.1639 51.9043 17.3578ZM29.6992 0.000732422C45.9642 0.000732422 59.1995 13.2336 59.2 29.499C59.2 45.7669 45.9642 58.9993 29.6992 58.9993C13.4333 58.9993 0.199951 45.7665 0.199951 29.499C0.199951 13.2336 13.4337 0.000732422 29.6992 0.000732422ZM29.6992 57.6467C45.2179 57.6467 57.8445 45.0196 57.8445 29.499C57.8445 13.9799 45.2183 1.35382 29.6992 1.35382C14.1791 1.35382 1.55256 13.9799 1.55256 29.499C1.55256 45.0196 14.1796 57.6467 29.6992 57.6467Z" fill="#00749A"/>
</g>
</svg>
